<?xml version="1.0" encoding="utf-8"?>
<!-- Generator: Adobe Illustrator 25.4.1, SVG Export Plug-In . SVG Version: 6.00 Build 0)  -->
<svg version="1.1" id="Layer_1" xmlns="http://www.w3.org/2000/svg" xmlns:xlink="http://www.w3.org/1999/xlink" x="0px" y="0px"
	 viewBox="0 0 1440 154" style="enable-background:new 0 0 1440 154;" xml:space="preserve">
<style type="text/css">
	.st0{fill:none;}
	.st1{fill:#6C4F3F;}
</style>
<rect class="st0" width="1440" height="154"/>
<polygon class="st1" points="944,0 -515,0 -515,119.97 -439.33,139.66 -415.11,135.94 -314.21,208.37 -266.79,198.71 -190.61,234 
	-142.18,203.91 -67.51,208.37 -3.44,130.74 98.97,124.06 134.79,133.34 211.47,124.06 361.81,137.8 477.34,121.09 610.02,139.66 
	702.35,119.97 819.89,135.94 882.96,124.06 916.76,130.74 944,111.43 964.26,130.74 989.4,124.06 1036.29,135.94 1123.71,119.97 
	1192.36,139.66 1291.03,121.09 1376.95,137.8 1488.75,124.06 1545.78,133.34 1572.41,124.06 1648.57,130.74 1696.22,208.37 
	1751.75,203.91 1787.76,234 1844.41,198.71 1879.68,208.37 1954.72,135.94 1972.72,139.66 2029,119.97 2029,0 "/>
</svg>
