<?xml version="1.0" encoding="utf-8"?>
<!-- Generator: Adobe Illustrator 25.4.1, SVG Export Plug-In . SVG Version: 6.00 Build 0)  -->
<svg version="1.1" id="Layer_1" xmlns="http://www.w3.org/2000/svg" xmlns:xlink="http://www.w3.org/1999/xlink" x="0px" y="0px"
	 viewBox="0 0 587.97 185.03" style="enable-background:new 0 0 587.97 185.03;" xml:space="preserve">
<style type="text/css">
	.st0{fill:#FFFFFF;}
</style>
<g>
	<path class="st0" d="M509.34,80.44c-0.41-4.66-1.34-9.25-1.77-13.9c-0.07-0.8-0.45-1.51-1.31-1.84c-2.03-0.78-4.13-1.18-6.29-1.19
		c-0.98-0.01-2.09,0.16-2.62,1.07c-1.39,2.37-3.29,4.39-4.49,6.89c-0.66,1.37-1.48,2.67-2.26,3.99c-0.43,0.73-0.88,1.09-1.41,0.03
		c-0.89-1.79-1.97-3.5-2.73-5.35c-0.76-1.86-2.05-2.89-3.87-3.55c-2.33-0.84-4.72-0.46-7.09-0.63c-1.37-0.1-2.31,0.71-2.64,1.89
		c-0.95,3.4-1.96,6.78-2.35,10.31c-0.45,4.04-0.69,8.11-1.61,12.1c-0.56,2.45-1.09,4.94-0.94,7.51c0.1,1.65,0.76,2.45,2.29,3.11
		c2.14,0.93,4.35,0.43,6.53,0.52c2.14,0.08,3.07-0.6,3.62-2.69c0.53-2.01,1.19-3.97,1.94-5.91c0.29-0.76,0.42-1.93,1.19-2
		c0.57-0.05,1.06,1.08,1.38,1.78c0.67,1.46,1.79,2.06,3.31,2.13c1.04,0.04,2.07-0.01,3.1-0.01c1.32-0.01,2.21-0.57,2.97-1.57
		c0.7-0.92,1.47-1.8,2.37-2.91c0.74,2.19,0.88,4.19,1.01,6.18c0.13,1.93,0.94,3.19,2.76,3.97c2.33,0.98,4.61,0.68,7.01,0.32
		c1.81-0.27,2.63-1.24,2.9-2.78c0.53-3.02,0.58-6.09,0.21-9.13C510.22,85.97,509.58,83.23,509.34,80.44z"/>
	<path class="st0" d="M431.71,72.75c0-1.08,0.11-2.18-0.02-3.25c-0.56-4.76-0.83-9.53-1.12-14.31c-0.08-1.31,0.02-2.69-0.7-3.92
		c-1.37-2.36-3.65-3.14-6.07-2.98c-2.31,0.15-4.39,1.07-5.01,3.82c-0.43,1.92-0.93,3.79-0.94,5.78c-0.02,2.4,0.15,4.79,0.3,7.19
		c0.03,0.5,0.12,1.04-0.6,1.23c-3.9,1.02-7.01,3.39-10.04,5.9c-4.23,3.5-7.49,7.52-8.02,13.32c-0.42,4.62,1.75,8.74,5.95,10.33
		c3.73,1.41,7.55,2.48,11.51,3.01c0.65,0.09,1.15,0.32,1.39,0.95c0.42,1.06,1.33,1.53,2.31,1.87c2.28,0.78,4.56,0.36,6.72-0.4
		c1.14-0.4,2.29-1.11,2.81-2.38c0.67-1.64,1.29-3.36,1.24-5.1C431.18,86.77,432.14,79.77,431.71,72.75z M417.89,85.28
		c-1.02,1.38-2.61,2.02-3.78,1.6c-1.23-0.44-2.03-1.83-2.03-3.57c-0.03-1.69,0.56-3.14,1.81-4.28c0.87-0.78,1.87-1.29,3.09-0.9
		c1.27,0.41,1.83,1.41,2.05,2.63C419.32,82.43,418.87,83.95,417.89,85.28z"/>
	<path class="st0" d="M215.26,61.22c-0.69-0.13-1.39-0.21-2.07-0.35c-4-0.84-5.5,0.65-6.49,4.38c-0.57,2.15-0.33,4.45-1.04,6.85
		c-1.71-2.39-3.38-4.62-4.95-6.92c-1.64-2.41-3.11-5.01-6.59-4.94c-1.22,0.03-2.43,0.08-3.65,0.13c-3.36,0.14-5.13,1.86-5,5.18
		c0.18,4.36,0.5,8.72,0.92,13.07c0.14,1.41,0.14,2.81,0.28,4.22c0.37,3.52,0.32,7.07,0.06,10.58c-0.2,2.71,1.26,4.62,3.98,4.58
		c1.83-0.03,3.66-0.13,5.49-0.29c1.63-0.14,2.52-1.09,2.84-2.74c0.41-2.18,0.43-4.39,0.55-6.59c0.02-0.36-0.15-0.88,0.29-1
		c0.57-0.15,0.59,0.5,0.76,0.82c0.79,1.53,1.52,3.09,2.28,4.63c0.86,1.75,2.08,3.3,4.01,3.64c3,0.53,6.06,0.69,9.11,0.14
		c0.73-0.13,1.07-0.61,1.24-1.16c0.26-0.83,0.55-1.65,0.72-2.52c0.67-3.3,0.74-6.64,0.62-9.96c-0.21-5.7,0.57-11.37,0.49-17.06
		C219.1,62.98,218.12,61.76,215.26,61.22z"/>
	<path class="st0" d="M245.94,60.08c-3.07-0.15-6.1,0.41-9.15,0.99c-7.21,1.36-11.38,9.51-11.26,14.71
		c0.28,3.82,0.82,7.61,1.92,11.27c1.19,3.97,4.07,6.45,7.64,8.46c4.69,2.64,9.48,3.2,14.57,1.71c3.44-1.01,5.46-3.81,7.7-6.31
		c0.8-0.9,1.54-1.89,1.93-3.04c2.19-6.38,2.23-12.68-0.84-18.82C255.87,63.88,251.97,60.37,245.94,60.08z M246.1,82.36
		c-1.61,2.77-4.66,2.92-6.48,0.32c-1.4-2.01-1.46-5.3-0.15-7.4c1.73-2.75,4.91-2.7,6.53,0.13c0.64,1.11,0.99,2.31,0.87,3.58
		C246.96,80.21,246.71,81.32,246.1,82.36z"/>
	<path class="st0" d="M309.83,60.35c-3.06-0.14-6.12,0.23-9.14,1.07c-6.06,1.68-10.75,7.06-11.07,13.33
		c-0.22,4.42,0.6,8.74,1.98,12.91c1.96,5.89,9.35,10.65,16.29,10.65c1.49,0.08,3.09-0.09,4.63-0.48c5.05-1.3,8.37-4.93,10.4-9.31
		c2.98-6.43,2.59-13.08-0.69-19.48C319.63,63.92,315.7,60.63,309.83,60.35z M310.08,82.64c-1.6,2.77-4.66,2.93-6.47,0.33
		c-1.4-2.01-1.47-5.3-0.15-7.4c1.73-2.76,4.91-2.7,6.54,0.12c0.67,1.16,1,2.4,0.87,3.74C310.94,80.58,310.66,81.64,310.08,82.64z"/>
	<path class="st0" d="M534.98,64.32c-3.07-0.15-6.1,0.41-9.15,0.99c-7.21,1.36-11.39,9.51-11.26,14.71
		c0.28,3.82,0.82,7.61,1.92,11.27c1.19,3.97,4.07,6.45,7.64,8.46c4.69,2.64,9.48,3.2,14.57,1.71c3.44-1.01,5.46-3.81,7.7-6.31
		c0.8-0.9,1.54-1.89,1.93-3.04c2.19-6.38,2.23-12.68-0.84-18.82C544.91,68.13,541.01,64.62,534.98,64.32z M535.13,86.62
		c-1.61,2.76-4.67,2.9-6.48,0.29c-1.4-2.03-1.46-5.3-0.12-7.4c1.74-2.75,4.9-2.67,6.53,0.15c0.64,1.12,1,2.31,0.86,3.54
		C536.01,84.47,535.74,85.58,535.13,86.62z"/>
	<path class="st0" d="M580.1,81c-1.38-1.58-3.24-2.51-4.9-3.7c-2.28-1.63-2.19-4.07,0.24-5.5c1.23-0.73,2.58-1.29,3.75-2.09
		c2.22-1.53,3.22-3.82,2.94-6.41c-0.35-3.2-4.47-5.7-7.7-5.02c-2.32,0.49-4.67,0.85-7.01,1.24c-4.01,0.67-7.44,2.19-10.26,5.39
		c-3.28,3.73-3.01,10.62,2.44,12.55c2.67,0.94,5.13,2.51,7.06,4.69c0.96,1.08,1.69,2.32,1.05,3.81c-0.72,1.67-1.99,2.86-3.78,3.26
		c-2.47,0.56-5.03,0.36-7.53,0.82c-2.91,0.54-4.39,2.38-4.61,5.15c-0.24,3.1,1.38,5.23,4.2,5.93c2.47,0.61,4.99,0.78,7.53,0.85
		c2.04,0.13,4.02-0.34,6.02-0.56c5.64-0.61,9.56-3.51,11.87-8.71C583.28,88.5,583.24,84.61,580.1,81z"/>
	<path class="st0" d="M462.71,62.96c-3.91-0.51-7.83-0.77-11.72,0.3c-1.96,0.54-4.04,0.66-5.74,1.98c-2.26,1.76-3.86,4.08-5.42,6.42
		c-2.03,3.05-3.51,6.3-3.88,10.01c-0.36,3.61,0.75,6.82,2.02,10.15c2.44,6.41,7.58,8.44,13.63,8.96c3.6,0.31,6.97-1.08,10.15-2.73
		c1.37-0.71,1.8-1.88,1.31-3.31c-0.68-2.01-1.5-3.97-2.16-5.98c-0.38-1.15-1.17-1.57-2.23-1.47c-2.74,0.26-5.48,0.6-8.22,0.95
		c-0.79,0.1-1.66,0.15-1.93-0.66c-0.3-0.92,0.59-1.25,1.29-1.53c1.8-0.73,3.7-1.14,5.61-1.32c3.5-0.34,3.99-2.76,3.71-5.4
		c-0.11-1.02-0.72-1.8-1.98-1.75c-1.17,0.05-2.35,0.01-3.53,0.01c0,0.01,0,0.02,0,0.03c-1.23,0-2.45,0.03-3.68-0.02
		c-0.34-0.01-0.8-0.1-0.92-0.48c-0.12-0.37,0.29-0.56,0.52-0.76c1.08-0.94,2.37-1.45,3.73-1.86c2.85-0.84,5.71-1.64,8.62-2.28
		c0.75-0.16,1.33-0.45,1.27-1.48c-0.11-2.02,0.39-4,0.75-5.97C464.14,63.63,463.57,63.08,462.71,62.96z"/>
	<path class="st0" d="M374.48,65.72c-1.7-0.48-3.44-0.47-5.17-0.54c-1.49-0.06-2.54,0.58-3.15,1.9c-1.28,2.75-2.16,5.62-2.66,8.62
		c-0.41,2.42-1.03,4.78-2.34,7.16c-0.52-1.29-0.88-2.39-1.39-3.42c-1.69-3.45-3.46-6.86-5.15-10.3c-1.3-2.65-4.11-3.94-6.94-3.04
		c-1.16,0.37-1.92,1.18-1.99,2.45c-0.05,0.8-0.11,1.62,0.02,2.4c1.29,7.61,2.39,15.28,4.88,22.62c0.88,2.58,2.2,4.99,5.15,5.85
		c4.02,1.18,7.82,0.59,11.45-1.43c0.58-0.33,0.85-0.87,1.12-1.39c2.27-4.46,3.83-9.21,5.66-13.85c1.08-2.75,1.32-5.7,1.67-8.59
		c0.27-2.22,0.55-4.47,0.34-6.73C375.89,66.44,375.42,65.99,374.48,65.72z"/>
	<path class="st0" d="M341.39,53.64c-0.08-1.25,0.03-2.59-0.68-3.79c-1.38-2.35-3.64-3.14-6.07-2.98c-1.71,0.11-3.65,0.5-4.52,2.49
		c-1.67,3.82-1.59,7.85-1.34,11.87c0.18,2.85,0.65,5.69,0.73,8.54c0.26,8.61-0.51,17.2-0.83,25.8c-0.1,2.79,0.68,4.01,3.37,4.79
		c2.18,0.63,4.28,0.18,6.28-0.6c1.64-0.64,2.62-1.89,3.19-3.74c0.92-2.96,0.68-5.93,0.8-8.91c0-1.88-0.22-3.8,0.04-5.65
		c0.63-4.47,0.32-8.95,0.09-13.39C342.2,63.27,341.68,58.46,341.39,53.64z"/>
	<path class="st0" d="M393.93,91.53c-0.23-2.91,0.09-5.85-0.19-8.75c-0.47-4.76-0.81-9.52-1.1-14.3c-0.08-1.3,0.02-2.68-0.7-3.92
		c-1.37-2.36-3.64-3.14-6.06-2.99c-2.3,0.15-4.39,1.05-5.02,3.81c-0.45,1.96-0.94,3.88-0.95,5.91c-0.02,3.95,0.61,7.86,0.8,11.78
		c0.25,5.25,0.23,10.54-0.29,15.79c-0.16,1.62,0.57,2.72,2.19,2.78c3.22,0.11,6.46,0.08,9.5-1.22c0.63-0.27,1.46-0.66,1.4-1.59
		C393.36,96.39,394.11,93.99,393.93,91.53z"/>
	<path class="st0" d="M388.26,59.28c3.21-1.69,4.88-6.34,3.47-9.67c-1.3-3.08-4.63-3.94-7.28-1.94c-2.1,1.59-2.95,3.77-3.2,6.16
		c0.04,0.63,0.04,1.15,0.12,1.66C381.92,58.98,385.31,60.84,388.26,59.28z"/>
</g>
<image style="overflow:visible;" width="209" height="268" xlink:href="pyro1.png"  transform="matrix(0.6562 0 0 0.6562 16.2925 4.5818)">
</image>
</svg>
